# xmcd
#
# Track frame offsets:
# 150
# 18422
# 40606
# 57179
# 74430
# 98131
# 113490
# 134820
# 149983
# 166754
# 181092
#
# Disc length: 2723 seconds
#
# Revision: 0
# Processed by: cddbd v1.4PL0 Copyright (c) Steve Scherf et al.
# Submitted via: Audion 3.0.2 (http://www.panic.com/audion/)
#
DISCID=980aa10b
DTITLE=Godhead - 2000 Years of Human Error
DYEAR=1900
DGENRE=
TTITLE0=The Reckoning
TTITLE1=I Sell Society
TTITLE2=Inside You
TTITLE3=Sinking
TTITLE4=Tired Old Man
TTITLE5=Break You Down
TTITLE6=Penetrate
TTITLE7=Backstander
TTITLE8=Eleonor Rigby
TTITLE9=2000 Years of Human Error
TTITLE10=I Hate Today
EXTD=
EXTT0=
EXTT1=
EXTT2=
EXTT3=
EXTT4=
EXTT5=
EXTT6=
EXTT7=
EXTT8=
EXTT9=
EXTT10=
PLAYORDER=
